<svg width="52" height="38" viewBox="0 0 52 38" fill="none" xmlns="http://www.w3.org/2000/svg">
<g filter="url(#filter0_d)">
<path d="M6.5 6.25C5.11925 6.25 4 7.375 4 8.75V26.25C4 27.625 5.11929 28.75 6.5 28.75H31.5C32.8813 28.75 34 27.625 34 26.25V8.75C34 7.375 32.8813 6.25 31.5 6.25H6.5Z" fill="#2F5269"/>
<path d="M7.75 1.25C6.36925 1.25 5.25 2.375 5.25 3.75V21.25C5.25 22.625 6.36925 23.75 7.75 23.75H21.5H27.75H30.25C31.6313 23.75 32.75 22.625 32.75 21.25V10V6.25C32.75 4.875 31.6313 3.75 30.25 3.75H27.75H21.5H20.25L16.5 1.25H7.75Z" fill="#45708C"/>
<path d="M32.75 17.5V7.5C32.75 6.125 31.6313 5 30.25 5H16.5H10.25H7.75C6.36925 5 5.25 6.125 5.25 7.5V17.5H32.75Z" fill="#BDC3C7"/>
<path d="M6.5 6.25C5.11925 6.25 4 7.375 4 8.75V16.25V17.5V25C4 26.375 5.11929 27.5 6.5 27.5H31.5C32.8813 27.5 34 26.375 34 25V17.5V16.25V8.75C34 7.375 32.8813 6.25 31.5 6.25H6.5Z" fill="#64748F"/>
<path d="M10.5625 10C10.1327 10 9.77475 10.1249 9.46875 10.3749C9.16275 10.7499 9 11.1249 9 11.4999V23.3749C9 23.8749 9.16275 24.125 9.46875 24.5C9.77475 24.75 10.1327 25 10.5625 25H25.25H26.5H27.4375C27.8675 25 28.225 24.75 28.5312 24.5C28.8375 24.125 29 23.8749 29 23.3749V11.4999C29 11.1249 28.8375 10.7499 28.5312 10.3749C28.225 10.1249 27.8675 10 27.4375 10H26.5H25.25H10.5625ZM10.5625 11.25H25.25H26.5H27.4375H27.6725C27.7375 11.375 27.75 11.3749 27.75 11.4999V23.3749C27.75 23.4999 27.7375 23.5 27.6725 23.625C27.6137 23.625 27.5225 23.75 27.4375 23.75H26.5H25.25H10.5625C10.4779 23.75 10.3932 23.625 10.3281 23.625C10.2695 23.5 10.25 23.4999 10.25 23.3749V11.4999C10.25 11.3749 10.2695 11.375 10.3281 11.25H10.5625ZM13.375 12.5C12.8541 12.5 12.4115 12.625 12.0469 13C11.6822 13.375 11.5 13.75 11.5 14.375C11.5 14.875 11.6822 15.25 12.0469 15.625C12.4115 16 12.8541 16.25 13.375 16.25C13.8959 16.25 14.3385 16 14.7031 15.625C15.0678 15.25 15.25 14.875 15.25 14.375C15.25 13.75 15.0678 13.375 14.7031 13C14.3385 12.625 13.8959 12.5 13.375 12.5ZM21.1875 13.9999L16.1875 18.9999L14.625 17.5L11.5 20.625V22.5H26.5V20L21.1875 13.9999Z" fill="#D5D5D5"/>
</g>
<path fill-rule="evenodd" clip-rule="evenodd" d="M46 23H43V29H37V32H43V38H46V32H52V29H46V23Z" fill="#64748F"/>
<defs>
<filter id="filter0_d" x="0" y="0" width="38" height="38" filterUnits="userSpaceOnUse" color-interpolation-filters="sRGB">
<feFlood flood-opacity="0" result="BackgroundImageFix"/>
<feColorMatrix in="SourceAlpha" type="matrix" values="0 0 0 0 0 0 0 0 0 0 0 0 0 0 0 0 0 0 127 0"/>
<feOffset dy="4"/>
<feGaussianBlur stdDeviation="2"/>
<feColorMatrix type="matrix" values="0 0 0 0 0 0 0 0 0 0 0 0 0 0 0 0 0 0 0.25 0"/>
<feBlend mode="normal" in2="BackgroundImageFix" result="effect1_dropShadow"/>
<feBlend mode="normal" in="SourceGraphic" in2="effect1_dropShadow" result="shape"/>
</filter>
</defs>
</svg>
