<svg width="24" height="24" viewBox="0 0 24 24" fill="none" xmlns="http://www.w3.org/2000/svg">
<path d="M23 0H1C0.4 0 0 0.4 0 1V18C0 18.6 0.4 19 1 19H9V21H7C6.4 21 6 21.4 6 22V24H7H17H18V22C18 21.4 17.6 21 17 21H15V19H23C23.6 19 24 18.6 24 18V1C24 0.4 23.6 0 23 0ZM17 22V23H7V22H9H10H14H15H17ZM10 21V19H14V21H10ZM22 17H2V2H22V17Z" fill="#240000"/>
<path d="M13.8 9.4C14.5 8.8 15 8 15 7C15 5.3 13.7 4 12 4C10.3 4 9 5.3 9 7C9 8 9.5 8.8 10.2 9.4C8.3 10.1 7 11.9 7 14H17C17 11.9 15.7 10.1 13.8 9.4ZM10 7C10 5.9 10.9 5 12 5C13.1 5 14 5.9 14 7C14 8.1 13.1 9 12 9C10.9 9 10 8.1 10 7ZM8.1 13C8.5 11.3 10.1 10 12 10C13.9 10 15.4 11.3 15.9 13H8.1Z" fill="#060045"/>
</svg>
