<svg width="27" height="22" viewBox="0 0 27 22" fill="none" xmlns="http://www.w3.org/2000/svg">
<path d="M20.25 9.10714C21.8471 9.10714 23.1429 7.88337 23.1429 6.375C23.1429 4.86663 21.8471 3.64285 20.25 3.64285C18.6529 3.64285 17.3571 4.86663 17.3571 6.375C17.3571 7.88337 18.6529 9.10714 20.25 9.10714Z" fill="#64748F"/>
<path d="M25.3125 0H1.6875C0.747321 0 0 0.72288 0 1.61083V20.2463C0 21.1343 0.747321 21.8571 1.6875 21.8571H25.3125C26.2527 21.8571 27 21.1343 27 20.2463V1.61083C27 0.72288 26.2527 0 25.3125 0ZM19.0989 11.253C18.9181 11.0538 18.6408 10.9001 18.3275 10.9001C18.0201 10.9001 17.8031 11.0367 17.556 11.2246L16.429 12.1239C16.194 12.2833 16.0071 12.3914 15.7359 12.3914C15.4768 12.3914 15.2417 12.3003 15.073 12.158C15.0127 12.1068 14.9042 12.01 14.8138 11.9247L11.5714 8.61194C11.3304 8.35011 10.9688 8.18505 10.565 8.18505C10.1612 8.18505 9.7875 8.37288 9.55246 8.62902L1.92857 17.315V2.48739C1.98884 2.10033 2.30826 1.82143 2.71808 1.82143H24.2759C24.6917 1.82143 25.0292 2.11172 25.0533 2.50446L25.0714 17.3263L19.0989 11.253Z" fill="#64748F"/>
</svg>
