<svg width="35" height="35" viewBox="0 0 35 35" fill="none" xmlns="http://www.w3.org/2000/svg">
<g clip-path="url(#clip0)">
<path d="M29.8701 4.98337C23.0301 -1.66112 11.9699 -1.66112 5.12994 4.98337C-1.70998 11.6279 -1.70998 22.3721 5.12994 29.0166C11.9699 35.6611 23.0301 35.6611 29.8701 29.0166C36.71 22.3721 36.71 11.6279 29.8701 4.98337ZM27.8326 27.0374C22.157 32.5509 12.843 32.5509 7.16736 27.0374C1.49168 21.5239 1.49168 12.4761 7.16736 6.96258C12.843 1.44906 22.157 1.44906 27.8326 6.96258C33.5083 12.4761 33.5083 21.5239 27.8326 27.0374Z" fill="#64748F"/>
<path d="M17.5 20.4167C15.8958 20.4167 14.5833 21.7292 14.5833 23.3333C14.5833 24.9375 15.8958 26.25 17.5 26.25C19.1042 26.25 20.4167 24.9375 20.4167 23.3333C20.4167 21.7292 19.1042 20.4167 17.5 20.4167ZM17.5 24.7917C16.625 24.7917 16.0417 24.2083 16.0417 23.3333C16.0417 22.4583 16.625 21.875 17.5 21.875C18.375 21.875 18.9583 22.4583 18.9583 23.3333C18.9583 24.2083 18.375 24.7917 17.5 24.7917Z" fill="#64748F"/>
<path d="M17.5 5.83334C15.8958 5.83334 14.5833 7.14584 14.5833 8.75001V16.0417C14.5833 17.6458 15.8958 18.9583 17.5 18.9583C19.1042 18.9583 20.4167 17.6458 20.4167 16.0417V8.75001C20.4167 7.14584 19.1042 5.83334 17.5 5.83334ZM18.9583 16.0417C18.9583 16.9167 18.375 17.5 17.5 17.5C16.625 17.5 16.0417 16.9167 16.0417 16.0417V8.75001C16.0417 7.87501 16.625 7.29168 17.5 7.29168C18.375 7.29168 18.9583 7.87501 18.9583 8.75001V16.0417Z" fill="#64748F"/>
</g>
<defs>
<clipPath id="clip0">
<rect width="35" height="35" fill="white"/>
</clipPath>
</defs>
</svg>
