<svg width="20" height="22" viewBox="0 0 20 22" fill="none" xmlns="http://www.w3.org/2000/svg">
<path fill-rule="evenodd" clip-rule="evenodd" d="M17 9H3C1.3 9 0 10.3 0 12V18H4V22H16V18H20V12C20 10.3 18.7 9 17 9ZM14 20H6V15H14V20ZM17 13C16.4 13 16 12.6 16 12C16 11.4 16.4 11 17 11C17.6 11 18 11.4 18 12C18 12.6 17.6 13 17 13Z" fill="#64748F"/>
<path d="M15.9844 0C16.2637 0 16.4964 0.0666178 16.6953 0.199951C16.8942 0.399951 17 0.599967 17 0.799967V7.1333C17 7.39997 16.8942 7.53332 16.6953 7.73332C16.4964 7.86665 16.2637 8 15.9844 8H6.4375H5.625H5.01562C4.73612 8 4.50375 7.86665 4.30469 7.73332C4.10562 7.53332 4 7.39997 4 7.1333V0.799967C4 0.599967 4.10562 0.399951 4.30469 0.199951C4.50375 0.0666178 4.73612 0 5.01562 0H5.625H6.4375H15.9844ZM15.9844 0.666667H6.4375H5.625H5.01562H4.86288C4.82063 0.733333 4.8125 0.733301 4.8125 0.799967V7.1333C4.8125 7.19997 4.82063 7.20002 4.86288 7.26668C4.90106 7.26668 4.96037 7.33333 5.01562 7.33333H5.625H6.4375H15.9844C16.0394 7.33333 16.0944 7.26668 16.1367 7.26668C16.1748 7.20002 16.1875 7.19997 16.1875 7.1333V0.799967C16.1875 0.733301 16.1748 0.733333 16.1367 0.666667H15.9844ZM14.1562 1.33333C14.4948 1.33333 14.7825 1.40002 15.0195 1.60002C15.2565 1.80002 15.375 2 15.375 2.33333C15.375 2.6 15.2565 2.8 15.0195 3C14.7825 3.2 14.4948 3.33333 14.1562 3.33333C13.8177 3.33333 13.53 3.2 13.293 3C13.056 2.8 12.9375 2.6 12.9375 2.33333C12.9375 2 13.056 1.80002 13.293 1.60002C13.53 1.40002 13.8177 1.33333 14.1562 1.33333ZM9.07812 2.1333L12.3281 4.79997L13.3438 4L15.375 5.66667V6.66667H5.625V5.33333L9.07812 2.1333Z" fill="#64748F"/>
</svg>
