<svg width="30" height="29" viewBox="0 0 30 29" fill="none" xmlns="http://www.w3.org/2000/svg">
<path d="M28.7225 16.5176L27.6 15.3734C27.6013 15.3634 27.601 15.3535 27.5998 15.3386C27.6239 15.0834 27.6399 14.8264 27.6505 14.5691C27.6529 14.4949 27.6497 14.4155 27.6512 14.3413C27.6534 14.144 27.6505 13.9532 27.6411 13.7627C27.6372 13.6794 27.6325 13.6019 27.6269 13.519C27.6222 13.3918 27.6153 13.2662 27.6052 13.1333L28.7309 11.9971C29.2679 11.4543 30.2428 10.7336 29.9444 10.0474L28.712 7.20924C28.4136 6.5224 27.1882 6.66644 26.4047 6.64053L24.7612 6.58427C24.637 6.44325 24.5032 6.30925 24.3745 6.17314C24.3696 6.168 24.3637 6.16007 24.3575 6.15283C24.3118 6.1073 24.2731 6.05781 24.2269 6.01299C24.1573 5.94108 24.0771 5.87244 24.0053 5.8024C23.9012 5.70295 23.7976 5.60186 23.6909 5.50567C23.5157 5.34575 23.331 5.19494 23.1489 5.04529C23.1415 5.03805 23.1297 5.03198 23.1233 5.02708C23.1135 5.01797 23.1046 5.0077 23.0948 4.99836L23.0417 3.4358C23.0176 2.69596 23.1708 1.53099 22.452 1.2471L19.4604 0.0655517C18.7406 -0.218804 17.9761 0.706871 17.4058 1.21185L16.2012 2.27923C15.9311 2.25355 15.6629 2.24025 15.3945 2.23044C15.3195 2.22764 15.244 2.22904 15.1638 2.22951C14.9909 2.22811 14.8164 2.2232 14.6386 2.22974C14.414 2.23651 14.1894 2.24982 13.9655 2.26826C13.9368 2.26966 13.908 2.26966 13.8853 2.27153C13.8693 2.27456 13.8573 2.27223 13.8411 2.27527L12.6428 1.20461C12.0718 0.697766 11.3114 -0.230244 10.5885 0.0524779L7.59784 1.22212C6.87411 1.50508 7.02713 2.67075 6.99834 3.41222L6.94004 4.97431C6.92208 4.98715 6.90413 5.0049 6.8874 5.02054C6.69084 5.17603 6.49798 5.33665 6.31053 5.50381C6.2414 5.56824 6.17474 5.63314 6.10709 5.69828C5.974 5.82131 5.84043 5.94832 5.71275 6.07882C5.64732 6.14653 5.58705 6.21516 5.52333 6.28427C5.43674 6.37345 5.35212 6.46146 5.26922 6.55555L3.62176 6.60341C2.84219 6.62652 1.61465 6.48108 1.31552 7.16348L0.0700225 10.0024C-0.229359 10.6857 0.744552 11.4087 1.27665 11.9499L2.4016 13.0934C2.3834 13.2704 2.37528 13.4464 2.36495 13.6255C2.3652 13.642 2.362 13.6596 2.36249 13.6761C2.34724 13.9796 2.33961 14.2827 2.35068 14.5848C2.35585 14.7174 2.36618 14.8476 2.37503 14.98C2.38315 15.0869 2.38561 15.1957 2.39619 15.3024C2.39545 15.3141 2.39644 15.3248 2.39742 15.3328L1.27025 16.473C0.735942 17.0139 -0.242642 17.7335 0.0552625 18.4194L1.28772 21.2576C1.58612 21.9449 2.81513 21.8018 3.59642 21.8288L5.24142 21.8818C5.25249 21.8972 5.26577 21.9063 5.27758 21.9222C5.44437 22.1123 5.61952 22.2979 5.80205 22.4846C5.86626 22.5502 5.93415 22.6065 5.99934 22.6709C6.13341 22.8 6.26846 22.9277 6.40819 23.0522C6.47683 23.1087 6.5494 23.1677 6.61877 23.2287C6.71594 23.3102 6.8104 23.3933 6.90782 23.4675L6.958 25.0308C6.9826 25.7706 6.83008 26.9384 7.54938 27.2225L10.5407 28.4043C11.261 28.6889 12.0224 27.7639 12.5926 27.2589L13.7985 26.1939C13.8118 26.1941 13.8246 26.1925 13.8379 26.1927C13.9931 26.209 14.1471 26.2146 14.3011 26.2221C14.3473 26.2259 14.3921 26.2261 14.4359 26.2305C14.5082 26.2326 14.5776 26.238 14.6474 26.2403C14.7301 26.242 14.8125 26.2396 14.8952 26.2399C15.0961 26.2443 15.2974 26.2403 15.4966 26.2317C15.5835 26.2289 15.6723 26.2226 15.7581 26.2179C15.8937 26.2123 16.0243 26.206 16.1576 26.1985L17.3579 27.2655C17.9296 27.7751 18.686 28.7015 19.4088 28.4183L22.3996 27.2486C23.1236 26.9652 22.974 25.8014 23.0016 25.0576L23.0582 23.499C23.1991 23.3874 23.3349 23.2712 23.466 23.1577C23.4845 23.1374 23.5056 23.1231 23.5258 23.107C23.5716 23.0659 23.6205 23.0314 23.6599 22.9919C23.7396 22.9249 23.8082 22.8509 23.8808 22.7842C23.9846 22.6845 24.0948 22.5848 24.2003 22.4804C24.3536 22.3242 24.5078 22.1608 24.6569 21.9906C24.6739 21.9755 24.6872 21.9626 24.7017 21.9428C24.7142 21.9323 24.7218 21.9253 24.729 21.9171L26.375 21.8669C27.1545 21.8438 28.385 21.9885 28.6844 21.3059L29.9297 18.467C30.2305 17.7841 29.2544 17.0588 28.7225 16.5176ZM21.5812 14.2348C21.5812 17.6837 18.6348 20.4799 15.0007 20.4799C11.3666 20.4799 8.42022 17.6837 8.42022 14.2348C8.42022 10.7859 11.3666 7.9897 15.0007 7.9897C18.6348 7.9897 21.5812 10.7859 21.5812 14.2348Z" fill="#64748F"/>
</svg>
