<svg width="24" height="18" viewBox="0 0 24 18" fill="none" xmlns="http://www.w3.org/2000/svg">
<path fill-rule="evenodd" clip-rule="evenodd" d="M0 0H24V18H0V0ZM1.5 1.5V16.5H22.5V1.5H1.5ZM3.00916 15.0399C3.00916 15.0399 4.56921 4.50549 6.8855 4.50549C9.20178 4.50549 10.2164 11.9363 12.0798 11.9363C13.9433 11.9363 13.8029 9.03278 15.167 9.03278C16.5311 9.03278 21.2267 15.0399 21.2267 15.0399H3.00916ZM18.75 7.5C17.5074 7.5 16.5 6.49264 16.5 5.25C16.5 4.00736 17.5074 3 18.75 3C19.9926 3 21 4.00736 21 5.25C21 6.49264 19.9926 7.5 18.75 7.5Z" fill="#2980B9"/>
</svg>
